<?xml version="1.0" standalone="no"?>
<!DOCTYPE svg PUBLIC "-//W3C//DTD SVG 20010904//EN"
 "http://www.w3.org/TR/2001/REC-SVG-20010904/DTD/svg10.dtd">
<svg version="1.0" xmlns="http://www.w3.org/2000/svg"
 width="185.000000pt" height="83.000000pt" viewBox="0 0 185.000000 83.000000"
 preserveAspectRatio="xMidYMid meet">

<g transform="translate(0.000000,83.000000) scale(0.100000,-0.100000)"
fill="#000000" stroke="none">
<path d="M1501 801 c-12 -16 -21 -34 -21 -40 0 -6 -4 -11 -10 -11 -5 0 -10 7
-10 15 0 13 -63 15 -504 15 l-505 0 -3 -27 c-2 -14 -15 -35 -30 -46 l-26 -20
-66 37 -67 37 -67 -38 -67 -39 -3 -75 -3 -76 -60 -33 -60 -34 3 -85 3 -85 55
-32 55 -32 5 -77 5 -76 67 -37 68 -37 65 35 c63 34 65 34 92 18 16 -9 28 -25
28 -35 0 -17 25 -18 503 -21 443 -2 505 0 526 14 21 13 31 13 66 3 36 -11 46
-10 75 5 18 10 38 29 44 42 6 13 22 30 37 36 26 12 54 55 54 82 0 8 8 20 19
25 25 14 45 65 37 96 -4 15 0 37 9 56 10 19 14 41 10 59 -4 20 -1 37 9 52 26
37 20 76 -18 114 -30 30 -33 39 -29 73 3 23 1 41 -6 45 -6 4 -36 -4 -66 -18
-29 -14 -60 -26 -67 -26 -7 0 -25 21 -40 45 -15 25 -32 45 -37 45 -5 0 -18
-17 -28 -37 -24 -49 -45 -56 -36 -11 8 45 30 86 53 101 28 17 25 27 -9 27 -21
0 -36 -8 -50 -29z m-71 -411 l0 -360 -475 0 -475 0 0 360 0 360 475 0 475 0 0
-360z m-1114 309 l54 -30 0 -67 0 -67 -55 -30 -56 -30 -54 30 -55 29 0 67 0
67 53 31 c28 17 54 31 56 31 2 0 28 -14 57 -31z m120 -177 c-3 -3 -12 1 -21 8
-23 19 -21 136 3 149 15 9 17 2 20 -71 2 -44 1 -83 -2 -86z m1171 124 c12 -24
19 -47 16 -50 -7 -6 -123 -9 -123 -2 0 2 16 20 35 40 19 21 35 42 35 47 0 22
18 6 37 -35z m116 -28 c-31 -31 -63 -34 -63 -6 0 13 79 48 89 41 3 -2 -9 -18
-26 -35z m-197 -133 c-10 -15 -26 -25 -39 -24 -14 0 -17 2 -7 6 27 10 50 36
51 57 1 18 2 18 6 3 3 -10 -3 -29 -11 -42z m268 -6 c-10 -12 -29 -18 -48 -18
-27 2 -28 2 -6 6 33 6 60 31 61 57 2 19 2 19 6 -2 3 -14 -3 -32 -13 -43z
m-114 32 c0 -29 -28 -51 -63 -50 l-32 1 34 8 c34 8 51 24 51 48 0 6 2 12 5 12
3 0 5 -9 5 -19z m-1492 -31 l52 -30 0 -68 0 -67 -54 -31 -54 -32 -54 32 -53
32 -3 66 -3 66 53 30 c29 17 55 31 58 31 3 1 29 -13 58 -29z m230 14 c20 -14
22 -23 22 -112 0 -96 0 -98 -27 -113 -27 -16 -30 -15 -85 18 l-58 34 0 63 0
63 58 31 c67 37 62 36 90 16z m1372 -89 c0 -31 -33 -65 -62 -65 -19 0 -17 3
12 18 25 12 36 25 38 45 4 34 12 36 12 2z m-135 -14 c-9 -30 -33 -51 -58 -51
-18 1 -16 3 10 15 20 9 35 23 39 40 3 14 9 24 11 21 3 -2 2 -14 -2 -25z m-135
10 c0 -12 -41 -63 -47 -57 -4 4 37 66 44 66 2 0 3 -4 3 -9z m250 -116 c0 -31
-33 -65 -62 -65 -19 0 -17 3 12 18 25 12 36 25 38 45 4 34 12 36 12 2z m-150
0 c0 -22 -45 -65 -67 -64 -14 0 -15 2 -3 6 23 9 60 45 60 60 0 7 2 13 5 13 3
0 5 -7 5 -15z m-1305 -26 l55 -31 0 -66 0 -67 -55 -30 -56 -30 -54 30 -55 29
0 67 0 67 53 31 c28 17 53 31 55 31 1 0 27 -14 57 -31z m121 -177 c-3 -3 -12
1 -21 8 -23 19 -21 128 3 146 16 12 17 7 20 -68 2 -44 1 -83 -2 -86z m1130 73
c-12 -19 -24 -25 -49 -24 -30 2 -30 2 -4 6 15 2 35 15 45 28 23 30 29 23 8
-10z m134 -4 c-8 -16 -20 -21 -48 -20 l-37 2 35 6 c23 4 38 14 45 29 5 12 11
18 13 13 2 -6 -2 -19 -8 -30z m-86 -88 c-10 -7 -29 -13 -43 -12 -23 1 -23 2 7
10 18 6 36 17 39 26 5 13 8 14 11 3 3 -7 -3 -19 -14 -27z m-124 13 c0 -3 -4
-8 -10 -11 -5 -3 -10 -1 -10 4 0 6 5 11 10 11 6 0 10 -2 10 -4z"/>
<path d="M1000 700 c-8 -16 -8 -20 3 -20 8 0 22 9 32 20 18 19 17 20 -3 20
-12 0 -26 -9 -32 -20z"/>
<path d="M980 657 c-24 -12 -25 -15 -25 -127 0 -114 0 -114 28 -130 24 -13 30
-13 55 0 27 16 27 17 30 126 2 81 -1 114 -10 121 -24 19 -53 23 -78 10z m45
-128 c0 -77 -3 -94 -15 -94 -12 0 -16 17 -18 84 -3 92 1 115 21 108 8 -2 12
-31 12 -98z"/>
<path d="M690 530 c0 -126 1 -130 21 -130 21 0 21 3 15 76 -4 47 -3 74 2 70 6
-3 13 -37 17 -76 6 -60 10 -70 26 -70 10 0 19 1 20 3 0 1 6 38 14 82 l13 80 1
-82 c1 -76 3 -83 21 -83 19 0 20 7 20 130 l0 130 -29 0 c-29 0 -29 -1 -41 -85
-7 -47 -13 -85 -15 -85 -2 0 -8 38 -15 85 -12 84 -12 85 -41 85 l-29 0 0 -130z"/>
<path d="M880 530 l0 -130 25 0 25 0 0 130 0 130 -25 0 -25 0 0 -130z"/>
<path d="M1090 530 l0 -130 49 0 c74 0 81 12 81 129 0 116 -9 131 -83 131
l-47 0 0 -130z m88 4 c2 -62 -1 -84 -12 -93 -28 -23 -36 -2 -36 90 0 88 1 90
23 87 20 -3 22 -9 25 -84z"/>
<path d="M557 353 c-4 -3 -7 -64 -7 -135 0 -121 1 -128 20 -128 18 0 20 7 21
83 l1 82 14 -79 c14 -86 16 -91 38 -83 9 4 16 28 21 69 11 97 25 106 22 13 -2
-69 0 -80 16 -83 15 -3 17 8 17 133 l0 136 -27 -3 c-27 -3 -28 -6 -39 -80 -5
-43 -13 -80 -16 -83 -3 -3 -8 23 -12 57 -11 96 -15 108 -40 108 -13 0 -26 -3
-29 -7z"/>
<path d="M776 333 c-9 -42 -36 -216 -36 -230 0 -7 9 -13 20 -13 15 0 20 7 20
25 0 34 47 37 52 3 2 -15 11 -24 25 -26 25 -4 25 -13 -6 168 -15 91 -17 95
-43 98 -22 3 -27 -2 -32 -25z m43 -120 c1 -24 -3 -33 -15 -33 -14 0 -15 7 -10
38 3 20 6 46 7 57 2 31 17 -22 18 -62z"/>
<path d="M897 353 c-4 -3 -7 -64 -7 -135 l0 -128 55 0 c48 0 55 2 55 20 0 16
-7 20 -35 20 l-35 0 0 115 c0 89 -3 115 -13 115 -8 0 -17 -3 -20 -7z"/>
<path d="M1015 348 c-3 -8 -4 -68 -3 -134 3 -111 4 -119 23 -119 19 0 20 7 20
130 0 116 -2 130 -18 133 -9 2 -19 -3 -22 -10z"/>
<path d="M1087 353 c-4 -3 -7 -64 -7 -135 0 -121 1 -128 20 -128 18 0 20 7 21
88 l0 87 23 -85 c19 -72 25 -85 44 -88 23 -3 23 -3 20 130 -3 110 -6 133 -18
133 -11 0 -16 -17 -20 -70 -4 -62 -6 -66 -13 -36 -20 91 -28 111 -46 111 -10
0 -21 -3 -24 -7z"/>
<path d="M1267 353 c-3 -5 -12 -57 -21 -118 -10 -60 -19 -118 -22 -127 -4 -13
0 -18 14 -18 13 0 22 9 26 25 9 36 56 36 56 0 0 -18 5 -25 20 -25 25 0 25 6 0
150 -11 63 -20 116 -20 118 0 6 -49 1 -53 -5z m36 -120 c5 -48 4 -53 -13 -53
-20 0 -20 8 -4 89 7 32 10 25 17 -36z"/>
</g>
</svg>
